<svg width="260" height="260" viewBox="0 0 260 260" fill="none" xmlns="http://www.w3.org/2000/svg">
<circle cx="130" cy="130" r="130" fill="#EBF0E4"/>
<path d="M169.531 56.1484L163.063 65.6704C163.063 65.6704 166.587 68.4132 168.272 72.3232C169.733 75.7559 170.791 79.7809 165.219 86.5142L160.188 91.5512C143.254 77.1302 126.044 76.4517 126.044 76.4517H122.813L121.013 79.3267C121.013 79.3267 106.35 104.259 92.2629 130.001C85.2191 142.87 78.2501 155.968 73.4086 166.301C70.9764 171.465 69.0674 175.961 67.8311 179.595C67.2274 181.412 66.7961 182.942 66.5776 184.626C66.3476 186.311 65.7209 188.623 68.5499 191.457C71.3846 194.286 73.6961 193.654 75.3809 193.43C77.0656 193.205 78.5951 192.78 80.4121 192.176C84.0519 190.94 88.5426 189.031 93.7119 186.599C104.027 181.751 117.126 174.794 130 167.744C155.72 153.634 180.675 138.994 180.675 138.994L183.55 137.195V133.779C183.55 133.779 182.785 116.776 168.456 99.8197L170.428 97.6634C170.923 97.1689 171.371 96.8297 171.866 96.4042L173.303 95.1449C180.088 89.9354 186.511 90.1424 192.175 91.5569C196.104 92.5497 199.818 94.2529 203.134 96.5824L210.322 87.6009C210.322 87.6009 203.939 82.6847 194.866 80.4134C192.859 79.9417 190.817 79.6416 188.759 79.5164L200.438 67.8324L192.169 59.5697L180.134 71.6102C179.844 70.2538 179.422 68.9289 178.875 67.6542C175.638 60.1102 169.531 56.1542 169.531 56.1542V56.1484ZM128.919 88.6704C132.697 89.0327 143.501 90.6024 156.416 103.586C169.353 116.615 170.946 127.333 171.325 131.077C170.382 131.64 165.466 134.607 161.625 136.827C159.588 132.309 157.056 128.032 154.075 124.073L144.916 131.082C148.958 136.47 150.62 140.179 151.563 142.582C142.557 147.684 133.512 152.716 124.428 157.676C123.871 157.964 123.376 158.28 122.813 158.573C121.755 155.428 120.03 151.633 116.884 147.251L107.541 153.898C110.37 157.854 111.761 161.109 112.394 163.242C112.503 163.604 112.503 163.691 112.566 163.961C103.97 168.567 95.6611 172.988 88.8531 176.18C85.3054 177.847 82.7869 178.767 80.2281 179.773C81.2401 177.215 82.1601 174.696 83.8219 171.148C88.4679 161.247 95.3449 148.332 102.325 135.573C105.695 129.421 108.259 124.815 111.313 119.398C113.153 121.014 115.533 123.193 118.144 126.586L127.125 119.577C124.209 115.706 120.83 112.207 117.063 109.158C123.083 98.6007 127.89 90.4472 128.925 88.6704H128.919Z" fill="black"/>
</svg>
